<?xml version="1.0" standalone="no"?>
<!DOCTYPE svg PUBLIC "-//W3C//DTD SVG 20010904//EN"
 "http://www.w3.org/TR/2001/REC-SVG-20010904/DTD/svg10.dtd">
<svg version="1.0" xmlns="http://www.w3.org/2000/svg"
 width="512.000000pt" height="512.000000pt" viewBox="0 0 512.000000 512.000000"
 preserveAspectRatio="xMidYMid meet">
<metadata>
Created by potrace 1.14, written by Peter Selinger 2001-2017
</metadata>
<g transform="translate(0.000000,512.000000) scale(0.100000,-0.100000)"
fill="#000000" stroke="none">
<path d="M2452 5110 c-127 -23 -262 -94 -360 -191 -68 -66 -108 -125 -148
-217 -17 -40 -34 -75 -37 -78 -3 -3 -23 4 -44 15 -109 55 -310 73 -443 38
-283 -74 -500 -330 -517 -612 l-6 -80 -66 -32 c-176 -84 -321 -264 -365 -453
-9 -36 -16 -110 -16 -166 0 -160 44 -292 139 -418 l47 -62 -38 -48 c-26 -33
-38 -58 -38 -80 0 -62 73 -98 118 -58 67 59 152 164 152 187 0 17 -21 48 -70
101 -107 115 -159 239 -160 375 0 234 155 446 381 518 61 20 74 43 71 123 -6
162 47 299 162 414 116 116 235 160 405 152 108 -6 181 -29 260 -82 66 -45 77
-48 116 -32 36 15 36 17 60 119 51 226 223 384 453 417 269 38 528 -141 587
-406 8 -38 18 -79 21 -92 6 -27 63 -55 91 -45 10 4 41 22 69 40 64 43 139 71
206 79 51 6 55 5 115 -39 72 -53 132 -126 175 -211 45 -89 58 -141 65 -252 l6
-101 56 -23 c173 -71 306 -210 362 -382 20 -61 24 -93 24 -198 0 -105 -4 -135
-24 -190 -31 -87 -82 -170 -145 -235 l-52 -52 37 -32 c52 -43 127 -160 157
-244 30 -84 42 -254 23 -325 l-12 -42 -499 0 -500 0 0 166 0 166 -29 29 -29
29 -276 0 -276 0 0 95 0 95 274 0 c151 0 282 3 291 6 35 14 45 58 45 198 l0
134 141 4 141 3 25 29 c24 29 25 30 21 195 -3 189 -14 224 -89 299 l-41 40 25
34 c54 72 71 119 75 213 5 118 -17 182 -94 264 -78 85 -151 116 -269 116 -78
0 -98 -4 -153 -29 -81 -38 -162 -123 -192 -203 -46 -123 -20 -277 63 -370 l20
-22 -41 -41 c-76 -76 -87 -112 -90 -299 -4 -181 1 -203 51 -221 16 -5 79 -10
138 -10 l109 0 0 -90 0 -90 -535 0 -535 0 0 89 0 90 161 3 161 3 25 29 c24 29
25 31 21 185 -3 154 -4 158 -36 224 -23 46 -47 77 -77 101 l-44 33 25 34 c53
69 68 117 68 219 1 83 -2 102 -25 150 -60 127 -175 208 -308 218 -90 6 -157
-11 -231 -58 -113 -74 -179 -207 -167 -337 7 -69 44 -163 80 -201 l21 -22 -25
-17 c-43 -31 -81 -77 -108 -133 -25 -52 -26 -62 -26 -217 0 -216 -8 -207 190
-211 l145 -3 0 -148 c0 -208 -29 -191 328 -191 l282 0 0 -95 0 -95 -279 0
c-266 0 -279 -1 -305 -21 l-26 -20 0 -175 0 -174 -580 0 c-403 0 -586 -3 -603
-11 -14 -6 -30 -23 -37 -38 l-12 -26 -14 27 c-22 41 -44 147 -44 211 0 78 -23
103 -90 97 -14 -1 -33 -9 -44 -18 -16 -15 -18 -29 -14 -122 6 -120 39 -225
101 -322 l35 -56 -48 -31 c-154 -100 -209 -306 -125 -471 13 -26 31 -52 39
-59 23 -19 20 -33 -12 -54 -38 -26 -89 -96 -107 -147 -11 -31 -15 -85 -15
-201 l0 -158 26 -20 c26 -20 38 -21 394 -21 356 0 368 1 394 21 l26 20 0 159
c0 135 -3 167 -20 212 -20 53 -63 108 -109 141 l-25 17 21 28 c55 75 90 191
78 261 l-6 38 93 5 c51 3 101 9 111 13 11 5 17 3 17 -6 0 -7 20 -55 45 -106
50 -103 137 -205 225 -264 27 -19 48 -36 47 -39 -58 -106 -61 -122 -65 -273
-5 -161 3 -197 44 -216 16 -7 95 -11 214 -11 l190 0 0 -75 c0 -140 -36 -242
-113 -318 -23 -23 -129 -93 -236 -156 -200 -118 -218 -135 -205 -187 14 -57
-44 -54 1112 -54 l1063 0 24 25 c27 26 31 54 15 86 -6 10 -97 70 -203 133
-208 123 -271 177 -308 262 -22 52 -38 151 -39 232 l0 52 215 0 216 0 25 25
26 26 -4 167 c-3 159 -5 169 -30 219 -15 28 -32 54 -38 58 -18 11 -11 20 51
65 99 72 192 198 226 308 15 46 20 52 38 47 11 -3 59 -9 108 -12 l87 -6 0 -67
c0 -86 22 -158 65 -215 19 -25 35 -47 35 -50 0 -3 -18 -23 -41 -46 -72 -72
-83 -110 -87 -299 -3 -153 -2 -168 16 -190 l20 -25 344 -3 c337 -3 345 -2 371
18 l27 21 0 163 c0 194 -10 233 -79 308 l-48 52 39 55 c47 70 73 164 64 238
-14 119 -79 225 -171 279 l-44 25 30 44 c76 112 112 236 112 380 0 160 -51
310 -145 426 l-45 55 39 44 c49 57 113 186 135 270 22 86 22 245 0 330 -10 36
-36 103 -59 150 -56 115 -176 236 -293 296 l-80 41 -6 81 c-3 45 -12 94 -18
110 -13 30 -47 52 -80 52 -12 0 -24 13 -34 38 -8 20 -29 57 -45 81 -27 40 -28
45 -15 71 19 38 6 67 -54 119 -55 49 -202 123 -283 142 -70 17 -239 17 -310 0
-30 -8 -79 -24 -109 -37 -53 -24 -71 -24 -71 -1 0 25 -71 160 -114 216 -80
103 -198 185 -331 227 -90 29 -242 40 -333 24z m-377 -957 c144 -72 159 -275
27 -368 -35 -24 -55 -30 -110 -33 -83 -4 -142 23 -187 87 -38 54 -48 157 -20
212 56 111 183 155 290 102z m1211 6 c64 -20 134 -119 134 -191 0 -197 -238
-293 -372 -151 -63 66 -74 156 -32 242 51 101 149 137 270 100z m-176 -1949
c0 -211 -2 -231 -17 -236 -108 -36 -195 -110 -239 -202 -35 -73 -44 -188 -21
-257 l16 -46 -28 24 c-70 59 -137 160 -162 245 -29 101 -129 110 -159 14 -22
-68 -80 -169 -130 -223 -50 -56 -68 -61 -50 -15 5 15 10 61 10 101 0 142 -71
261 -190 322 -36 18 -73 35 -82 37 -17 5 -18 25 -18 236 l0 230 535 0 535 0 0
-230z m-1220 -195 c0 -25 -5 -37 -17 -41 -53 -15 -147 -71 -177 -105 -75 -82
-113 -201 -97 -301 5 -29 8 -54 7 -55 -5 -6 -65 75 -94 127 -29 52 -37 77 -62
177 -8 32 -18 47 -40 58 -28 14 -36 14 -103 -7 -55 -18 -96 -23 -173 -23
l-101 0 -52 47 c-29 26 -75 56 -104 66 -48 18 -52 22 -55 56 l-3 36 535 0 536
0 0 -35z m2303 23 c-55 -73 -95 -116 -147 -154 -69 -52 -82 -53 -208 -12 -63
20 -68 20 -93 4 -27 -17 -39 -40 -49 -88 -6 -25 -11 -28 -49 -28 -68 1 -121
17 -137 42 -49 75 -137 143 -222 172 -13 4 -18 16 -18 41 l0 35 466 0 c372 0
465 -3 457 -12z m-3368 -227 c83 -38 126 -106 126 -196 0 -181 -213 -281 -347
-163 -94 83 -103 227 -18 312 40 40 100 66 154 66 25 0 63 -9 85 -19z m1209 7
c23 -7 59 -30 82 -53 154 -155 -1 -414 -213 -354 -59 16 -127 81 -142 135 -50
179 96 324 273 272z m1234 -4 c146 -61 178 -261 57 -361 -73 -61 -167 -67
-250 -19 -151 89 -127 325 40 384 44 16 111 14 153 -4z m1241 -10 c126 -63
156 -234 59 -333 -139 -142 -367 -52 -368 147 0 160 163 258 309 186z m-1905
-304 c15 -23 43 -59 62 -80 l36 -39 9 -363 c10 -405 18 -472 61 -559 43 -87
107 -145 248 -230 l124 -74 -326 -3 c-180 -1 -476 -1 -659 0 l-333 3 68 40
c37 22 96 69 131 106 100 106 145 223 145 375 0 114 0 114 77 114 55 0 67 3
89 25 l26 26 -4 167 c-3 156 -5 171 -29 220 l-26 52 44 26 c59 34 166 136 200
190 15 24 29 44 29 44 1 0 13 -18 28 -40z"/>
</g>
</svg>
